<?xml version="1.0" encoding="utf-8"?>
<!-- Generator: Adobe Illustrator 25.3.1, SVG Export Plug-In . SVG Version: 6.00 Build 0)  -->
<svg version="1.1" xmlns="http://www.w3.org/2000/svg" xmlns:xlink="http://www.w3.org/1999/xlink" x="0px" y="0px"
	 viewBox="0 0 708.661 708.661" style="enable-background:new 0 0 708.661 708.661;" xml:space="preserve">
<style type="text/css">
	.st0{display:none;}
	.st1{display:inline;fill:#5F5F5F;}
	.st2{display:inline;fill:#FFFFFF;}
	.st3{fill:#FFFFFF;}
	.st4{fill:#1E1E1E;}
</style>
<g id="レイヤー_2" class="st0">
	<rect x="70.866" y="70.866" class="st1" width="566.929" height="566.929"/>
	<circle class="st2" cx="354.331" cy="354.331" r="283.465"/>
</g>
<g id="レイヤー_1">
	<g>
		<path class="st3" d="M237.515,338.993c-24.735-11.243-47.771-45.653-47.771-92.564c0,0-0.04-125.998,164.063-125.998
			c189.979,0,182.426,195.083,148.281,259.481c7.973,5.021,27.734,19.865,21.132,44.235c-4.661,17.206-21.305,27.065-39.121,29.97
			C448.985,588.804,340.664,588.23,340.664,588.23c-159.922,0-141.82-245.066-134.323-268.716"/>
		<path class="st4" d="M340.685,599.569c-0.034,0-0.061,0-0.081,0c-44.839,0-80.659-17.834-106.407-53.007
			c-56.472-77.144-44.496-212.083-38.665-230.474c0.163-0.513,0.358-1.006,0.584-1.478c-10.583-17.579-17.711-40.612-17.711-68.182
			c0-1.42,0.243-35.253,22.329-69.184c12.997-19.968,30.842-35.855,53.04-47.219c27.132-13.89,60.788-20.933,100.033-20.933
			c36.874,0,68.938,7.14,95.3,21.222c23.692,12.655,42.798,30.861,56.787,54.111c38.098,63.323,29.373,147.633,10.469,191.84
			c16.495,13.708,22.958,31.812,17.802,50.847c-4.842,17.87-19.916,31.219-40.959,36.668
			c-19.85,68.929-58.919,102.133-88.678,117.918C371.468,599.234,342.769,599.569,340.685,599.569z M214.822,337.4
			c-1.649,15.535-2.823,41.229-0.637,70.549c2.761,37.021,11.649,88.796,38.311,125.218c21.239,29.014,50.903,43.725,88.168,43.725
			c0.272,0,25.502-0.223,54.212-15.75c38.316-20.722,64.644-57.692,78.25-109.885c1.132-4.343,4.719-7.608,9.147-8.33
			c5.917-0.965,25.569-5.384,30.001-21.744c4.104-15.149-6.561-25.587-16.229-31.676c-5.022-3.162-6.756-9.663-3.976-14.906
			c19.988-37.698,29.159-120.697-5.608-178.483c-25.689-42.698-70.321-64.347-132.655-64.347c-35.617,0-65.796,6.205-89.699,18.441
			c-18.63,9.538-33.558,22.795-44.369,39.404c-18.453,28.349-18.657,56.528-18.657,56.81c0,43.666,21.318,73.242,41.125,82.245
			c5.701,2.591,8.222,9.313,5.63,15.014c-2.59,5.701-9.312,8.223-15.014,5.63C226.73,346.546,220.624,342.547,214.822,337.4z"/>
	</g>
	<path class="st4" d="M329.957,340.66c-0.911,0-1.835-0.11-2.759-0.341c-25.692-6.423-44.693-22.918-54.948-47.703
		c-7.521-18.176-7.607-34.565-7.607-35.254c0-6.262,5.076-11.338,11.338-11.338c6.252,0,11.322,5.059,11.338,11.307
		c0.018,2.162,0.939,49.877,45.379,60.988c6.075,1.519,9.769,7.675,8.25,13.75C339.661,337.22,335.038,340.66,329.957,340.66z
		 M287.32,257.362h0.01H287.32z"/>
	<path class="st4" d="M452.567,354.502c-34.455,0-60.26-8.931-76.771-26.588c-20.828-22.274-18.288-49.92-18.169-51.086
		c0.632-6.23,6.186-10.766,12.426-10.136c6.207,0.63,10.734,6.155,10.142,12.357c-0.078,0.934-1.404,19.081,12.392,33.617
		c13.001,13.698,35.339,20.102,66.356,19.048c6.305-0.206,11.505,4.688,11.719,10.945c0.214,6.259-4.687,11.505-10.945,11.719
		C457.293,354.461,454.91,354.502,452.567,354.502z"/>
	<ellipse class="st4" cx="370.676" cy="393.257" rx="16.399" ry="27.452"/>
	<ellipse class="st4" cx="289.473" cy="393.257" rx="16.399" ry="27.452"/>
	<path class="st4" d="M326.448,485.58c-3.007,0-5.978-1.362-7.929-3.948c-19.355-25.665-8.193-51.289,0.414-61.252
		c3.581-4.147,9.846-4.604,13.993-1.022c4.128,3.565,4.6,9.791,1.07,13.938c-1.485,1.785-13.789,17.621,0.366,36.39
		c3.299,4.375,2.427,10.596-1.948,13.895C330.625,484.929,328.528,485.58,326.448,485.58z"/>
	<circle class="st4" cx="332.742" cy="525.896" r="21.26"/>
	<g>
		<path class="st4" d="M151.299,144.151c-2.303,0-4.627-0.699-6.636-2.152l-50.08-36.226c-5.074-3.67-6.212-10.759-2.542-15.833
			c3.671-5.074,10.759-6.211,15.833-2.542l50.08,36.226c5.074,3.67,6.212,10.759,2.542,15.833
			C158.278,142.522,154.813,144.151,151.299,144.151z"/>
		<path class="st4" d="M193.403,113.592c-4.189,0-8.217-2.331-10.187-6.346l-23.493-47.872c-2.759-5.622-0.438-12.415,5.184-15.174
			c5.619-2.76,12.415-0.438,15.174,5.184l23.493,47.872c2.759,5.622,0.438,12.415-5.184,15.174
			C196.783,113.218,195.08,113.592,193.403,113.592z"/>
		<path class="st4" d="M135.468,193.688c-0.519,0-1.044-0.036-1.573-0.109l-52.819-7.331c-6.203-0.861-10.533-6.587-9.672-12.79
			s6.582-10.533,12.79-9.672l52.819,7.331c6.203,0.861,10.533,6.587,9.672,12.79C145.897,189.581,141.038,193.688,135.468,193.688z"
			/>
	</g>
</g>
</svg>
