<svg id="logo" xmlns="http://www.w3.org/2000/svg" viewBox="0 0 737.975 2006.683"><defs><style>.cls-1{fill:#fff;}.cls-2{fill:#1e1e1e;}.cls-3{fill:none;stroke:#1e1e1e;stroke-linecap:round;stroke-linejoin:round;stroke-width:36.85px;}</style></defs><path class="cls-1" d="M702.62,936.094c-18.693-32.038-44.656-60.561-77.167-84.776a367.708,367.708,0,0,0-100.37-52.489c1.93-1.833,3.847-3.693,5.733-5.609,24.713-25.111,45.513-57.479,61.822-96.2,12.823-30.446,22.936-64.922,30.056-102.469a653.425,653.425,0,0,0,11.366-109.3c23.663-31.692,39.154-65.309,47.3-102.576,6.493-29.721,8.142-60.845,5.189-97.95-3.387-42.57-12.559-81.536-27.261-115.814-15.153-35.329-36.233-65.823-62.655-90.635-27.116-25.464-59.955-45.023-97.6-58.135C460.658,6.775,416.908,0,368.988,0S277.317,6.775,238.951,20.137c-37.651,13.112-70.49,32.671-97.6,58.135-26.423,24.812-47.5,55.306-62.655,90.635-14.7,34.278-23.874,73.244-27.262,115.814-2.952,37.105-1.3,68.229,5.19,97.95,8.14,37.265,23.635,70.885,47.3,102.576a653.406,653.406,0,0,0,11.365,109.3c7.121,37.547,17.233,72.023,30.055,102.469,16.31,38.725,37.11,71.093,61.823,96.2,1.886,1.917,3.8,3.777,5.734,5.61a367.667,367.667,0,0,0-100.371,52.489c-32.512,24.215-58.475,52.738-77.167,84.776C11.9,976.305,0,1021.931,0,1071.706c0,73.3,18.046,136.284,53.639,187.2a251.338,251.338,0,0,0,39.425,44.365c.723,37.5,3.86,128.03,17.4,159.391,5.766,13.351,13.279,23.66,22.725,31.122.01.057.011.113.021.17l58.315,335.8a153.1,153.1,0,0,0-51.484,23.6c-28,20.189-43.417,47.61-43.417,77.213,0,21.13,8.272,49.441,47.685,64.322,21.608,8.159,50.248,11.8,92.862,11.8s71.255-3.638,92.864-11.8c20.03-7.563,32.006-18.6,38.952-30.39,6.946,11.794,18.922,22.827,38.952,30.39,21.608,8.159,50.248,11.8,92.862,11.8s71.254-3.638,92.863-11.8c39.413-14.881,47.685-43.192,47.685-64.322,0-29.6-15.419-57.024-43.417-77.213a153.1,153.1,0,0,0-51.484-23.6l58.314-335.8c.01-.056.011-.113.021-.169,9.447-7.462,16.961-17.771,22.725-31.123,13.54-31.361,16.677-121.891,17.4-159.391a251.3,251.3,0,0,0,39.426-44.365c35.592-50.915,53.639-113.9,53.639-187.2C737.974,1021.931,726.08,976.305,702.62,936.094Z"/><ellipse class="cls-2" cx="290.287" cy="526.765" rx="30.433" ry="50.944"/><ellipse class="cls-2" cx="447.688" cy="526.765" rx="30.433" ry="50.944"/><path class="cls-2" d="M369.18,747.819c-21.706,0-39.834-9.531-49.217-17.638a15.749,15.749,0,0,1,20.506-23.909c2.846,2.367,27.976,21.877,57.763-.583A15.749,15.749,0,1,1,417.2,730.837C400.627,743.335,384.061,747.819,369.18,747.819Z"/><path class="cls-2" d="M374.636,676.965a15.729,15.729,0,0,1-12.587-6.268c-30.725-40.743-13.006-81.42.657-97.236a15.749,15.749,0,0,1,23.912,20.5c-2.358,2.834-21.889,27.973.581,57.768a15.752,15.752,0,0,1-12.563,25.234Z"/><path class="cls-3" d="M368.987,840.394c252.438,0,246.66-361.388,246.66-361.388,52.626-67.525,57.086-135.58,52.531-192.824C655.32,124.581,556.335,18.425,368.987,18.425S82.655,124.581,69.8,286.182c-4.555,57.244-.095,125.3,52.531,192.824C122.328,479.006,116.55,840.394,368.987,840.394Z"/><path class="cls-3" d="M252.51,265.605s0,102.858,105.977,129.25"/><path class="cls-3" d="M419.377,308.647S441.956,409,551.142,411.481"/><circle class="cls-2" cx="368.987" cy="1081.864" r="26.223"/><circle class="cls-2" cx="368.987" cy="1170.922" r="26.223"/><path class="cls-3" d="M290.563,839.04s9.4,70.447,73.17,106.735c-10.047,25.6-30.011,45.642-43.559,55.224-16.572,11.722-34.919,5.814-50.9-18.892s-54.491-83.6-24.8-170.184"/><path class="cls-3" d="M447.412,839.04s-9.4,70.447-73.17,106.735c10.047,25.6,30.01,45.642,43.559,55.224,16.572,11.722,34.918,5.814,50.905-18.892s54.491-83.6,24.8-170.184"/><path class="cls-3" d="M626.693,1287.853s-.848,132.178-16.1,167.5-40.97,37.054-80.9,34.772"/><path class="cls-3" d="M111.282,1287.853s.848,132.178,16.1,167.5,40.97,37.054,80.9,34.772"/><polyline class="cls-3" points="292.572 1270.138 368.987 1270.138 445.403 1270.138"/><polyline class="cls-3" points="241.922 1331.569 220.944 1544.969 368.176 1544.969 369.799 1544.969 517.031 1544.969 496.053 1331.569"/><path class="cls-3" d="M510.432,1272.063c-3.58,7.16-11.333,33.691-15.463,44.383-15.126,39.158-44.507,25.7-44.507,25.7-33.964-15.2-8.7-56.673,7.81-95.2,26.473-61.775,93.079-33.531,93.079-33.531s71.243,26.484,48.539,132.734c-12.225,57.349-52.908,102.395-82.859,110.011"/><path class="cls-3" d="M227.542,1272.063c3.581,7.16,11.334,33.691,15.464,44.383,15.125,39.158,44.507,25.7,44.507,25.7,33.964-15.2,8.7-56.673-7.811-95.2-26.473-61.775-93.078-33.531-93.078-33.531s-71.244,26.484-48.54,132.734c12.226,57.349,52.909,102.395,82.86,110.011"/><path class="cls-3" d="M509.343,813.278s210.206,54.7,210.206,258.428c0,164.161-95.778,227.351-115.193,238.6"/><path class="cls-3" d="M228.631,813.278S18.425,867.98,18.425,1071.706c0,164.161,95.779,227.351,115.194,238.6"/><line class="cls-3" x1="586.61" y1="1490.801" x2="526.06" y2="1839.468"/><line class="cls-3" x1="151.365" y1="1490.801" x2="211.914" y2="1839.468"/><path class="cls-3" d="M622.926,1930.564c0,48.634-54.677,57.694-122.124,57.694s-122.123-9.06-122.123-57.694,54.676-88.06,122.123-88.06S622.926,1881.93,622.926,1930.564Z"/><path class="cls-3" d="M115.049,1930.564c0,48.634,54.677,57.694,122.124,57.694S359.3,1979.2,359.3,1930.564s-54.677-88.06-122.123-88.06S115.049,1881.93,115.049,1930.564Z"/><line class="cls-3" x1="368.987" y1="1897.147" x2="368.987" y2="1623.945"/><path class="cls-3" d="M563.946,1062.926s14.3,87.673-46.945,136.687"/><path class="cls-3" d="M174.029,1062.926s-14.3,87.673,46.945,136.687"/></svg>