<svg id="logo" xmlns="http://www.w3.org/2000/svg" viewBox="0 0 2187.424 481.89"><defs><style>.cls-1{fill:#fff;}.cls-2{fill:#1e1e1e;}</style></defs><path class="cls-1" d="M35.779,224.31a403.674,403.674,0,0,0-.626,69.314C37.866,330,46.6,380.866,72.793,416.65c20.867,28.506,50.013,42.959,86.626,42.959.267,0,25.056-.219,53.263-15.474,37.645-20.359,63.511-56.683,76.88-107.961a11.137,11.137,0,0,1,8.987-8.185c5.814-.948,25.122-5.289,29.477-21.363,4.032-14.884-6.446-25.139-15.946-31.121a11.14,11.14,0,0,1-3.906-14.646c19.637-37.037,28.648-118.583-5.511-175.359-25.239-41.95-69.089-63.22-130.332-63.22-34.994,0-64.645,6.1-88.129,18.118-18.3,9.371-32.97,22.4-43.592,38.715-18.129,27.853-18.33,55.538-18.33,55.814,0,42.9,20.944,71.961,40.4,80.806a11.14,11.14,0,1,1-9.219,20.283A71.491,71.491,0,0,1,35.779,224.31Z"/><path class="cls-2" d="M159.439,481.89h-.079c-44.054,0-79.248-17.522-104.545-52.079C-.667,354.018,11.1,221.441,16.828,203.371a11.225,11.225,0,0,1,.573-1.451C7,184.648,0,162.018,0,134.931c0-1.4.238-34.636,21.937-67.973,12.77-19.618,30.3-35.227,52.112-46.392C100.706,6.919,133.773,0,172.331,0c36.228,0,67.73,7.015,93.631,20.85a142.934,142.934,0,0,1,55.793,53.164c37.431,62.215,28.859,145.049,10.286,188.481,16.206,13.468,22.556,31.256,17.49,49.957-4.757,17.557-19.568,30.672-40.243,36.026-19.5,67.722-57.887,100.345-87.124,115.854C189.682,481.561,161.486,481.89,159.439,481.89ZM35.779,224.31a403.674,403.674,0,0,0-.626,69.314C37.866,330,46.6,380.866,72.793,416.65c20.867,28.506,50.013,42.959,86.626,42.959.267,0,25.056-.219,53.263-15.474,37.645-20.359,63.511-56.683,76.88-107.961a11.137,11.137,0,0,1,8.987-8.185c5.814-.948,25.122-5.289,29.477-21.363,4.032-14.884-6.446-25.139-15.946-31.121a11.14,11.14,0,0,1-3.906-14.646c19.637-37.037,28.648-118.583-5.511-175.359-25.239-41.95-69.089-63.22-130.332-63.22-34.994,0-64.645,6.1-88.129,18.118-18.3,9.371-32.97,22.4-43.592,38.715-18.129,27.853-18.33,55.538-18.33,55.814,0,42.9,20.944,71.961,40.4,80.806a11.14,11.14,0,1,1-9.219,20.283A71.491,71.491,0,0,1,35.779,224.31Z"/><path class="cls-2" d="M148.9,227.513a11.155,11.155,0,0,1-2.711-.336c-25.242-6.311-43.91-22.517-53.986-46.867a99.632,99.632,0,0,1-7.474-34.637,11.14,11.14,0,0,1,22.279-.031c.018,2.124.923,49.005,44.585,59.92a11.142,11.142,0,0,1-2.693,21.951Zm-41.892-81.84h0Z"/><path class="cls-2" d="M269.364,241.113c-33.852,0-59.2-8.774-75.428-26.123-20.463-21.884-17.967-49.046-17.851-50.192a11.14,11.14,0,0,1,22.173,2.183c-.078.917-1.38,18.746,12.175,33.028,12.773,13.458,34.707,19.752,65.194,18.715a11.14,11.14,0,1,1,.76,22.267Q272.817,241.113,269.364,241.113Z"/><ellipse class="cls-2" cx="188.906" cy="279.189" rx="16.112" ry="26.972"/><ellipse class="cls-2" cx="109.124" cy="279.189" rx="16.112" ry="26.972"/><path class="cls-2" d="M150.373,411.578a48.474,48.474,0,0,1-30.46-10.916,9.748,9.748,0,0,1,12.692-14.8c1.761,1.466,17.314,13.54,35.749-.36a9.747,9.747,0,1,1,11.738,15.564C169.836,408.8,159.584,411.578,150.373,411.578Z"/><path class="cls-2" d="M145.451,369.9a9.734,9.734,0,0,1-7.79-3.879c-19.016-25.216-8.049-50.391.407-60.18a9.747,9.747,0,0,1,14.8,12.689c-1.459,1.754-13.547,17.313.36,35.753a9.749,9.749,0,0,1-7.776,15.617Z"/><path class="cls-2" d="M613.544,189.11q1.308-1.428,2.2-2.438t1.606-1.726a15.766,15.766,0,0,1,3.809-2.793,10.048,10.048,0,0,1,4.761-1.13,13.87,13.87,0,0,1,5.415,1.071,16.378,16.378,0,0,1,4.522,2.8,14.49,14.49,0,0,1,3.213,4.046,10.27,10.27,0,0,1,1.25,4.939,11.137,11.137,0,0,1-.773,4.106,12.854,12.854,0,0,1-2.678,3.987l-54.39,58.258L636.633,323.6q.83.956,1.725,2.083a15.317,15.317,0,0,1,1.547,2.381,15.971,15.971,0,0,1,1.071,2.558,9.38,9.38,0,0,1,.417,2.857,11.38,11.38,0,0,1-1.309,5.355,15.438,15.438,0,0,1-3.451,4.4,17.331,17.331,0,0,1-4.821,3.036,13.822,13.822,0,0,1-5.415,1.13,12.053,12.053,0,0,1-8.569-3.453q-.954-.954-1.785-1.906t-2.261-2.739L553.8,267.135V335.02q0,5.718-3.274,8.873t-10.295,3.155q-6.783,0-10.116-3.153t-3.332-8.867V193.4q0-5.712,3.332-8.867t10.116-3.154q7.021,0,10.295,3.153t3.274,8.859v64.576Z"/><path class="cls-2" d="M696.421,334.2q-1.311,3.927-2.38,6.307a14.516,14.516,0,0,1-2.5,3.928,9.835,9.835,0,0,1-3.451,2.142,13.779,13.779,0,0,1-5,.833,15.222,15.222,0,0,1-4.939-.833,18.458,18.458,0,0,1-4.522-2.261,10.8,10.8,0,0,1-3.333-3.63,9.825,9.825,0,0,1-1.249-4.94,13.221,13.221,0,0,1,.414-3.212q.416-1.666,1.723-5.475l45.267-128.179q.832-2.142,1.548-3.987a21.78,21.78,0,0,1,1.606-3.333,31.629,31.629,0,0,1,1.785-2.677q.893-1.188,1.964-2.381a15.864,15.864,0,0,1,6.07-3.749,32.316,32.316,0,0,1,17.8,0,15.8,15.8,0,0,1,6.128,3.749q1.072,1.191,1.964,2.381a24.143,24.143,0,0,1,1.727,2.677,33.577,33.577,0,0,1,1.606,3.333q.773,1.846,1.607,3.987L805.792,326.7a45.092,45.092,0,0,1,1.787,5.474,14.4,14.4,0,0,1,.358,2.976,10.149,10.149,0,0,1-1.368,5.355,12.184,12.184,0,0,1-3.511,3.749,18.377,18.377,0,0,1-10,3.154,13.035,13.035,0,0,1-4.939-.892,11.122,11.122,0,0,1-3.749-2.441,11.507,11.507,0,0,1-2.38-3.629q-.956-2.2-2.262-6.01l-10.369-29.516h-63.2Zm66.148-50.7-17.758-52.165q-1.668-4.871-3.038-9.09t-2.444-7.547q-1.194-3.8-2.026-7.129h-.477q-.951,3.327-2.02,7.129-.952,3.328-2.258,7.547t-2.852,9.09l-17.113,52.165Z"/><path class="cls-2" d="M821.343,201.136q-.954-3.927-1.192-5.356a15.3,15.3,0,0,1-.238-2.5,10.253,10.253,0,0,1,1.309-5.236,12.2,12.2,0,0,1,3.452-3.809,16.766,16.766,0,0,1,4.76-2.38,17.2,17.2,0,0,1,5.237-.833,13.387,13.387,0,0,1,5.058.892,10.792,10.792,0,0,1,3.63,2.321,10.146,10.146,0,0,1,2.618,4.285q.714,2.381,1.666,6.069l25.282,101.044q1.191,5,2.027,9.283t1.432,7.616q.594,3.93,1.073,7.023h.475q.592-2.973,1.189-6.9.712-3.213,1.6-7.558t2.2-9.461l25.2-99.021q2.142-8.685,6.843-12.139t12.318-3.451q7.617,0,12.379,3.451t6.9,12.258l24.9,98.545q1.188,4.761,2.142,9.1t1.551,7.8q.714,3.927,1.431,7.5h.475q.592-3.572,1.308-7.5.591-3.452,1.484-7.8t2.079-8.866l23.871-100.806q.952-3.807,1.666-6.248a9.457,9.457,0,0,1,2.381-4.106,12.4,12.4,0,0,1,3.928-2.44,13.491,13.491,0,0,1,5-.892,16.852,16.852,0,0,1,5,.773,16.023,16.023,0,0,1,4.522,2.2,11.281,11.281,0,0,1,3.273,3.57,9.511,9.511,0,0,1,1.25,4.88,9.352,9.352,0,0,1-.06,1.012c-.041.356-.1.833-.178,1.428s-.219,1.309-.416,2.142-.456,1.886-.773,3.154L997.639,329.553a46.977,46.977,0,0,1-2.439,7.26,15.622,15.622,0,0,1-3.511,5.118,15.039,15.039,0,0,1-6.249,3.867,28.537,28.537,0,0,1-8.987,1.25,26.31,26.31,0,0,1-8.747-1.25,15.234,15.234,0,0,1-6.011-3.867,14.255,14.255,0,0,1-3.391-5.118,60.772,60.772,0,0,1-2.322-7.141l-24.666-96.4q-1.071-4.164-1.905-8.331t-1.55-7.617q-.712-3.927-1.43-7.379h-.475q-.6,3.57-1.189,7.5-.714,3.333-1.607,7.5t-1.96,8.45l-24.487,96.283a60.6,60.6,0,0,1-2.321,7.141A14.255,14.255,0,0,1,891,341.931a15.255,15.255,0,0,1-6.011,3.867,26.329,26.329,0,0,1-8.748,1.25,28.52,28.52,0,0,1-8.983-1.25,16.005,16.005,0,0,1-6.368-3.867,14.915,14.915,0,0,1-3.451-5.118,51.784,51.784,0,0,1-2.381-7.26Z"/><path class="cls-2" d="M1071.146,334.2q-1.311,3.927-2.38,6.307a14.468,14.468,0,0,1-2.5,3.928,9.826,9.826,0,0,1-3.451,2.142,13.772,13.772,0,0,1-5,.833,15.216,15.216,0,0,1-4.938-.833,18.483,18.483,0,0,1-4.523-2.261,10.805,10.805,0,0,1-3.333-3.63,9.825,9.825,0,0,1-1.249-4.94,13.271,13.271,0,0,1,.414-3.212q.417-1.666,1.724-5.475l45.267-128.179q.831-2.142,1.547-3.987a21.781,21.781,0,0,1,1.607-3.333,31.39,31.39,0,0,1,1.785-2.677q.893-1.188,1.964-2.381a15.86,15.86,0,0,1,6.069-3.749,32.316,32.316,0,0,1,17.795,0,15.8,15.8,0,0,1,6.129,3.749q1.072,1.191,1.964,2.381a24,24,0,0,1,1.726,2.677,33.8,33.8,0,0,1,1.607,3.333q.772,1.846,1.606,3.987l45.54,127.822a45.147,45.147,0,0,1,1.788,5.474,14.4,14.4,0,0,1,.358,2.976,10.149,10.149,0,0,1-1.368,5.355,12.184,12.184,0,0,1-3.511,3.749,18.377,18.377,0,0,1-10,3.154,13.041,13.041,0,0,1-4.94-.892,11.141,11.141,0,0,1-3.749-2.441,11.488,11.488,0,0,1-2.379-3.629q-.956-2.2-2.262-6.01l-10.369-29.516h-63.2Zm66.149-50.7-17.758-52.165q-1.668-4.871-3.038-9.09t-2.444-7.547q-1.194-3.8-2.027-7.129h-.476q-.951,3.327-2.02,7.129-.954,3.328-2.259,7.547t-2.851,9.09l-17.114,52.165Z"/><path class="cls-2" d="M1217.718,193.4q0-5.712,3.332-8.867t10.116-3.154q7.022,0,10.3,3.154t3.273,8.867V335.028q0,5.712-3.273,8.867t-10.3,3.153q-6.784,0-10.116-3.153t-3.332-8.867Z"/><path class="cls-2" d="M1361.478,194.828q0-5.949,3.273-9.283t9.343-3.333h38.918q20.112,0,35.585,5.3a69.625,69.625,0,0,1,25.946,15.293,63.848,63.848,0,0,1,15.828,24.577q5.356,14.58,5.356,33.264,0,20-5.832,35.884a72.253,72.253,0,0,1-16.96,26.9,74.7,74.7,0,0,1-27.075,16.9q-15.951,5.892-36.062,5.892h-35.7q-6.071,0-9.343-3.332t-3.273-9.283Zm49.868,129.964a65.719,65.719,0,0,0,23.564-3.994,47.47,47.47,0,0,0,17.853-11.805,52.2,52.2,0,0,0,11.306-19.378A82.2,82.2,0,0,0,1468,263.141q0-15.024-3.63-26.176a47.84,47.84,0,0,0-10.771-18.6,43.807,43.807,0,0,0-17.734-11.09,75.428,75.428,0,0,0-24.516-3.638H1388.5V324.792Z"/><path class="cls-2" d="M1559.854,324.554h59.984a9.266,9.266,0,0,1,7.021,2.737q2.616,2.739,2.618,8.094t-2.618,8.093a9.259,9.259,0,0,1-7.021,2.737h-74.385q-6.071,0-9.343-3.332t-3.272-9.283V194.828q0-5.949,3.272-9.283t9.343-3.333h73.789a9.421,9.421,0,0,1,7.142,2.738q2.616,2.739,2.618,7.974,0,5.357-2.618,8.153a9.309,9.309,0,0,1-7.142,2.8h-59.388v47.605h51.057a9.076,9.076,0,0,1,6.963,2.737q2.557,2.739,2.558,7.975t-2.558,7.973a9.066,9.066,0,0,1-6.963,2.738h-51.057Z"/><path class="cls-2" d="M1663.5,226.724a46.49,46.49,0,0,1,3.684-18.566,40.974,40.974,0,0,1,10.936-14.877,51.361,51.361,0,0,1,18.011-9.819,79.915,79.915,0,0,1,24.783-3.511,88.371,88.371,0,0,1,13.076.893,70.819,70.819,0,0,1,10.521,2.321,40.737,40.737,0,0,1,7.845,3.273,23.127,23.127,0,0,1,4.932,3.511,12.6,12.6,0,0,1,3.031,4.344,13.826,13.826,0,0,1,.774,4.82,9.028,9.028,0,0,1-2.738,7.022,10.014,10.014,0,0,1-7.022,2.5,13.58,13.58,0,0,1-5.3-1.071q-2.561-1.071-6.069-2.44a56.28,56.28,0,0,0-8.51-2.44,59.623,59.623,0,0,0-12.259-1.071,44.563,44.563,0,0,0-12.734,1.607,25.542,25.542,0,0,0-8.926,4.522,18.043,18.043,0,0,0-5.3,6.963,22.534,22.534,0,0,0-1.726,8.926,17.828,17.828,0,0,0,3.274,10.949,28.237,28.237,0,0,0,8.747,7.558,74.253,74.253,0,0,0,12.378,5.593q6.9,2.442,14.1,5.118a143.3,143.3,0,0,1,14.1,6.129,49.448,49.448,0,0,1,12.318,8.688,39.464,39.464,0,0,1,8.689,12.735q3.27,7.5,3.272,18.328a50.523,50.523,0,0,1-3.864,19.935,42.906,42.906,0,0,1-11.412,15.71,53.3,53.3,0,0,1-18.9,10.3,84.883,84.883,0,0,1-26.212,3.69,99.628,99.628,0,0,1-14.861-1.012,80.63,80.63,0,0,1-11.65-2.559,49.49,49.49,0,0,1-8.381-3.333,19.108,19.108,0,0,1-5.051-3.57,13.818,13.818,0,0,1-3.033-4.225,12.461,12.461,0,0,1-.891-4.939,9.566,9.566,0,0,1,2.738-7.26,9.746,9.746,0,0,1,7.021-2.618,11.938,11.938,0,0,1,5.3,1.249q2.559,1.249,6.368,2.678a65.139,65.139,0,0,0,24.159,3.928,47.145,47.145,0,0,0,13.925-1.845,28.351,28.351,0,0,0,9.879-5.117,20.744,20.744,0,0,0,5.891-7.856,25.261,25.261,0,0,0,1.964-10.056,20.534,20.534,0,0,0-3.273-11.9,29.123,29.123,0,0,0-8.688-8.152,67.15,67.15,0,0,0-12.319-5.951q-6.9-2.558-14.162-5.237t-14.163-5.951a48.9,48.9,0,0,1-12.318-8.271,37.594,37.594,0,0,1-8.688-12.14Q1663.5,237.079,1663.5,226.724Z"/><path class="cls-2" d="M1809.466,193.4q0-5.712,3.332-8.867t10.116-3.154q7.022,0,10.3,3.154t3.273,8.867V335.028q0,5.712-3.273,8.867t-10.3,3.153q-6.784,0-10.116-3.153t-3.332-8.867Z"/><path class="cls-2" d="M1957.943,279.686a8.739,8.739,0,0,1-6.962-2.8q-2.44-2.794-2.44-7.8a11.283,11.283,0,0,1,2.44-7.676,8.745,8.745,0,0,1,6.962-2.8h40.109q5.712,0,8.747,3.034t3.035,8.748v51.176a21.573,21.573,0,0,1-1.547,8.867,16.141,16.141,0,0,1-4.642,5.891,47.612,47.612,0,0,1-6.724,4.106,57.223,57.223,0,0,1-10.355,3.987,101.947,101.947,0,0,1-14.162,2.916,128.411,128.411,0,0,1-17.793,1.131q-18.807,0-33.8-5.416a68.4,68.4,0,0,1-25.409-15.77A70.041,70.041,0,0,1,1879.334,302q-5.655-14.935-5.654-33.86,0-20.231,6.071-36.537a77.429,77.429,0,0,1,17.316-27.73,76.054,76.054,0,0,1,27.373-17.615q16.126-6.187,36.24-6.189a88.812,88.812,0,0,1,16.247,1.369,91.777,91.777,0,0,1,12.853,3.273,47.141,47.141,0,0,1,9.224,4.166,30.348,30.348,0,0,1,5.355,3.927,12.923,12.923,0,0,1,3.154,4.284,13.634,13.634,0,0,1,.893,5.237,10.111,10.111,0,0,1-.773,4.047,9.721,9.721,0,0,1-2.024,3.035,8.8,8.8,0,0,1-3.1,1.963,10.952,10.952,0,0,1-3.987.714,12.387,12.387,0,0,1-5.653-1.487q-2.916-1.488-7.379-3.392a68.591,68.591,0,0,0-11.068-3.452,75.886,75.886,0,0,0-16.84-1.547,61.486,61.486,0,0,0-22.852,4.106A47.53,47.53,0,0,0,1917,218.453a55.61,55.61,0,0,0-11.425,19.7,81.543,81.543,0,0,0-4.047,26.778q0,15.353,4.047,26.957a52.991,52.991,0,0,0,11.544,19.459,47.5,47.5,0,0,0,18.031,11.782,66.863,66.863,0,0,0,23.5,3.928,82.9,82.9,0,0,0,11.247-.655,54.8,54.8,0,0,0,7.915-1.607,26.344,26.344,0,0,0,6.069-2.26V279.686Z"/><path class="cls-2" d="M2052.222,200.184q0-9.4,4.7-14.1t14.221-4.7a22.63,22.63,0,0,1,7.379,1.072,19.932,19.932,0,0,1,5.594,2.975,25.088,25.088,0,0,1,4.582,4.582,71.505,71.505,0,0,1,4.226,6.129l58.317,93.07q2.856,4.524,5.236,8.926t4.284,7.855q2.024,4.049,3.928,7.736l.6-.238q-.357-4.165-.715-8.926-.356-4.044-.654-9.224t-.3-10.77l-.952-92q-.238-5.235,2.975-8.212t9.4-2.976q6.306,0,9.342,2.976t3.036,8.212V328.125q0,9.524-4.7,14.222t-14.222,4.7a23.18,23.18,0,0,1-7.439-1.071,19.66,19.66,0,0,1-5.653-2.976,24.963,24.963,0,0,1-4.582-4.582,56.191,56.191,0,0,1-4.105-6.129L2088.4,239.221q-2.856-4.521-5.3-8.926t-4.224-7.855q-2.262-4.046-4.047-7.736l-.476.238q.357,4.167.714,8.926.357,4.047.6,9.283t.357,10.711l.952,92q.239,5.238-2.975,8.211t-9.4,2.976q-6.309,0-9.342-2.976t-3.035-8.211Z"/></svg>